<?xml version="1.0" standalone="no"?>
<!DOCTYPE svg PUBLIC "-//W3C//DTD SVG 20010904//EN"
 "http://www.w3.org/TR/2001/REC-SVG-20010904/DTD/svg10.dtd">
<svg version="1.0" xmlns="http://www.w3.org/2000/svg"
 width="878.000000pt" height="894.000000pt" viewBox="0 0 878.000000 894.000000"
 preserveAspectRatio="xMidYMid meet">

<g transform="translate(0.000000,894.000000) scale(0.100000,-0.100000)"
fill="#333333" stroke="none">
<path d="M5745 8633 c-119 -16 -277 -76 -374 -142 -100 -68 -231 -216 -231
-261 0 -8 7 -3 14 12 28 54 108 148 162 193 137 111 295 171 510 194 l79 8
-65 0 c-36 0 -78 -2 -95 -4z"/>
<path d="M6455 8498 c87 -63 216 -232 254 -333 28 -75 44 -195 37 -273 -4 -44
-2 -61 6 -56 7 5 9 44 5 123 -6 134 -27 214 -84 310 -42 71 -209 251 -233 251
-9 0 -3 -9 15 -22z"/>
<path d="M5810 8335 c-81 -16 -184 -54 -241 -87 -55 -32 -136 -103 -150 -132
-6 -11 13 2 42 31 102 98 231 156 414 187 55 9 68 14 40 14 -22 0 -69 -6 -105
-13z"/>
<path d="M4324 8251 c-133 -38 -273 -141 -316 -233 -32 -68 -118 -330 -118
-360 0 -13 9 -38 20 -56 l20 -33 -25 -33 c-15 -20 -30 -59 -37 -95 -10 -51
-18 -67 -58 -106 l-47 -46 -47 12 c-65 16 -124 6 -219 -40 -83 -39 -114 -62
-143 -106 -16 -24 -17 -24 -47 -8 -41 21 -152 127 -179 170 -11 19 -22 32 -25
29 -6 -6 76 -194 89 -202 5 -3 2 11 -7 32 -8 20 -14 39 -12 41 3 2 25 -13 50
-34 25 -21 71 -51 101 -67 31 -16 64 -37 75 -48 11 -10 25 -18 31 -18 20 0
110 -99 129 -142 23 -55 63 -318 48 -318 -3 0 -37 53 -77 118 -41 64 -93 142
-116 173 -44 58 -224 233 -231 225 -2 -2 28 -35 66 -72 39 -37 88 -92 108
-121 39 -57 46 -63 37 -35 -18 58 142 -188 207 -318 44 -87 119 -277 119 -299
0 -36 -51 40 -98 147 -43 94 -178 342 -188 342 -2 0 5 -19 16 -42 14 -32 16
-44 7 -50 -8 -5 -7 -8 5 -8 20 0 42 -56 25 -64 -7 -2 -4 -5 6 -5 15 -1 26 -21
11 -21 -21 0 -114 33 -114 41 0 5 -11 9 -25 9 -16 0 -43 16 -71 42 -45 41 -46
43 -23 49 24 7 24 7 -2 8 -23 1 -30 9 -50 64 -13 34 -23 68 -22 75 0 6 -3 12
-8 12 -4 0 -31 25 -60 55 -38 41 -76 67 -138 97 -47 23 -115 62 -151 86 l-65
43 48 -44 c26 -25 86 -64 133 -88 l87 -42 -61 -28 c-154 -69 -205 -132 -344
-419 -105 -217 -143 -313 -153 -396 -7 -47 -10 -53 -44 -67 -73 -33 -193 -120
-232 -169 -22 -28 -54 -81 -71 -119 -30 -63 -35 -68 -76 -80 -67 -19 -73 -35
-84 -227 -5 -92 -21 -275 -35 -407 -14 -132 -26 -287 -27 -345 -1 -96 1 -110
27 -162 31 -62 75 -98 123 -98 16 0 77 8 137 19 59 10 107 14 107 9 0 -5 -11
-25 -25 -46 -62 -94 -144 -343 -181 -552 -24 -132 -24 -363 -1 -449 21 -76 64
-176 83 -192 23 -19 16 -25 -43 -38 -186 -40 -794 -195 -830 -211 -61 -27 -73
-61 -73 -198 0 -97 2 -112 22 -137 27 -35 118 -78 211 -100 40 -10 75 -21 80
-25 4 -3 -9 -62 -28 -131 -48 -164 -84 -328 -144 -654 -67 -362 -151 -832
-151 -844 0 -26 834 -260 1226 -344 l112 -24 82 38 81 38 -7 48 c-12 75 -9
344 5 503 12 129 12 154 -3 225 -8 44 -20 120 -26 169 -5 49 -11 91 -14 93 -7
8 -74 -208 -87 -282 -11 -66 -8 -427 6 -639 4 -56 3 -63 -4 -31 -5 22 -14 117
-20 212 -22 346 -13 447 62 673 l41 124 -33 341 c-18 187 -34 341 -36 343 -1
1 -13 -2 -27 -7 -44 -17 -92 -111 -193 -380 -15 -40 -31 -68 -34 -62 -4 7 -17
-9 -30 -36 -12 -27 -31 -59 -42 -73 l-21 -25 6 50 c3 28 18 102 33 165 l27
115 9 -65 c5 -36 11 -72 14 -80 2 -8 29 45 58 118 30 73 70 162 89 198 l36 64
-28 -7 c-15 -5 -66 -7 -114 -6 l-88 1 6 -56 c3 -32 7 -62 9 -68 3 -11 -34
-207 -54 -280 -17 -62 -25 -180 -13 -188 10 -6 92 113 92 134 0 5 4 10 8 10 4
0 16 -63 26 -140 10 -78 20 -140 21 -138 2 2 19 45 39 96 39 101 157 354 163
349 2 -2 -18 -51 -43 -108 -25 -57 -71 -166 -101 -241 l-54 -138 25 -222 c53
-470 77 -700 72 -705 -2 -3 -30 1 -61 7 -47 10 -55 15 -49 28 27 65 44 143 44
200 0 86 -17 161 -78 357 -64 204 -75 268 -69 380 l6 90 -25 -73 c-32 -99 -61
-243 -75 -382 -16 -168 -17 -424 0 -488 7 -29 11 -56 8 -59 -4 -3 -36 0 -72 7
-55 10 -65 15 -59 29 17 38 15 247 -6 536 -35 492 -22 735 56 975 47 149 41
143 148 130 107 -13 122 -11 416 73 219 63 228 66 353 141 70 43 127 83 126
89 -6 46 3 319 10 307 14 -26 50 -487 51 -652 0 -58 -3 -68 -17 -68 -38 0 -42
13 -44 128 -1 76 -5 112 -13 111 -6 0 -37 -10 -69 -22 -57 -22 -59 -24 -232
-252 -171 -224 -175 -231 -171 -270 3 -22 8 -110 12 -197 4 -86 9 -160 13
-166 4 -7 376 -112 397 -112 2 0 4 -36 4 -81 l0 -81 71 -66 70 -67 -45 -213
c-25 -117 -46 -226 -46 -242 0 -27 7 -33 82 -71 93 -47 262 -114 384 -152 101
-32 310 -75 617 -127 l237 -40 66 30 65 29 -7 38 c-3 21 -21 76 -39 123 -34
90 -54 170 -56 223 l-1 32 -8 -32 c-4 -18 -16 -101 -26 -185 -26 -207 -31
-125 -9 132 20 236 32 332 34 277 3 -111 44 -335 76 -421 19 -50 37 -104 40
-121 12 -57 12 -56 67 -24 29 17 56 34 60 37 4 4 2 40 -3 80 -8 54 -22 96 -58
166 -26 51 -53 121 -61 157 -7 35 -32 126 -56 202 -34 107 -45 159 -50 237
l-7 100 -38 0 c-44 0 -37 21 -64 -201 -8 -74 -27 -189 -40 -254 l-24 -119 34
-205 c19 -113 32 -207 30 -209 -2 -3 -44 3 -93 13 l-89 17 -6 76 c-8 94 -41
232 -101 420 -72 225 -77 313 -25 487 22 77 22 77 53 71 108 -19 363 -37 456
-31 438 25 1300 106 1439 135 53 11 176 44 274 75 248 76 355 96 837 155 152
19 337 52 437 79 39 11 41 13 47 63 8 59 4 64 -64 74 -25 4 -48 8 -52 11 -5 2
26 27 67 54 82 55 140 117 176 188 33 64 33 209 0 293 -36 94 -126 169 -218
184 -21 3 -106 9 -189 12 l-151 7 40 120 c22 66 41 122 43 124 3 3 10 -1 16
-7 21 -21 26 -14 49 58 21 65 22 71 6 88 -15 17 -12 34 48 267 56 216 62 252
50 264 -9 10 -40 15 -93 16 l-79 1 -58 -176 c-31 -96 -61 -179 -66 -185 -19
-20 -7 37 46 205 47 152 52 177 40 189 -8 8 -16 13 -18 10 -3 -2 -28 -80 -57
-174 -48 -159 -70 -212 -70 -173 0 27 111 358 120 358 11 0 0 113 -12 121 -11
7 -99 20 -408 59 -130 17 -302 45 -384 64 l-148 33 -8 -23 c-43 -113 -122
-344 -261 -761 -170 -510 -167 -505 -213 -487 -14 5 -16 31 -16 178 l-1 171
-45 -145 c-48 -151 -50 -157 -60 -147 -3 3 19 84 49 179 l56 173 7 263 c6 209
10 262 21 262 10 0 13 -39 13 -198 0 -328 12 -633 23 -592 6 19 36 116 68 215
43 136 59 201 64 265 10 139 34 301 80 555 60 325 75 451 75 619 0 162 -13
248 -70 476 -60 236 -73 392 -50 579 6 46 10 85 8 86 -2 2 -28 5 -59 8 -50 5
-59 3 -78 -16 -40 -43 -91 -230 -91 -334 0 -78 16 -137 94 -350 31 -84 56
-161 56 -171 0 -16 9 -20 56 -24 72 -6 99 -31 99 -93 0 -67 -24 -85 -128 -98
l-85 -11 -7 -115 c-7 -118 6 -322 27 -440 l12 -66 22 71 c37 116 56 222 63
349 l7 120 8 -67 c8 -68 3 -163 -15 -248 -14 -69 -82 -280 -89 -280 -8 0 -12
21 -36 180 -11 69 -16 173 -16 303 -1 177 -2 197 -17 193 -32 -10 -752 -58
-759 -52 -1 2 2 15 8 30 14 39 12 67 -8 107 l-18 35 300 28 c166 15 328 29
361 32 85 7 125 14 125 22 -1 4 -11 54 -25 112 l-23 105 -1 -95 c-1 -97 -9
-126 -31 -118 -10 3 -12 85 -11 380 1 207 6 389 11 405 6 22 9 11 10 -47 l1
-75 23 77 c13 42 33 94 44 117 l21 40 -32 3 c-18 2 64 10 181 17 l213 15 130
93 c71 52 129 100 129 107 0 7 -20 44 -45 82 -24 38 -45 81 -45 96 0 15 -5 49
-10 76 -9 42 -17 52 -49 70 -21 12 -63 25 -92 30 l-54 7 -16 215 c-9 118 -20
303 -24 410 -7 193 -6 196 19 262 22 59 23 68 10 79 -12 10 -28 7 -87 -20
-112 -51 -107 -52 -101 10 4 30 17 78 30 108 29 65 29 71 3 105 -11 15 -18 33
-15 41 3 9 1 28 -5 43 -7 15 -17 74 -23 132 l-11 105 -14 -135 c-11 -111 -17
-143 -39 -182 l-26 -46 37 -60 c32 -52 37 -68 37 -119 l0 -60 -74 -21 c-41
-12 -76 -28 -79 -35 -3 -7 7 -45 21 -83 26 -69 26 -70 30 -420 l3 -352 -70
-32 c-91 -42 -105 -58 -98 -109 4 -32 2 -40 -14 -44 -10 -3 -25 3 -35 14 -9
10 -35 28 -58 39 -36 17 -62 20 -184 20 -78 0 -142 2 -142 4 0 2 12 30 27 62
25 55 27 70 31 225 4 142 2 171 -13 200 -9 19 -84 102 -165 184 -141 143 -148
152 -155 200 -4 27 -24 84 -46 127 -39 77 -52 151 -30 173 16 18 53 216 49
260 -3 24 -29 89 -57 146 -29 56 -67 142 -86 191 -18 50 -45 107 -59 128 -67
101 -268 148 -432 101z m70 -53 c-22 -24 -59 -66 -83 -95 -75 -92 -131 -111
-225 -74 l-29 12 47 48 c57 58 123 96 220 127 108 35 118 32 70 -18z m194 13
c110 -34 141 -69 190 -212 17 -46 53 -132 81 -191 56 -118 58 -132 33 -253
-19 -87 -24 -92 -104 -94 l-37 -1 6 99 6 99 -45 79 c-25 43 -91 171 -146 286
l-100 207 28 0 c15 0 55 -8 88 -19z m1398 -601 c4 -27 13 -55 20 -61 20 -16
17 -43 -7 -91 l-21 -42 -20 25 c-51 64 -52 68 -33 89 31 34 45 25 45 -27 0
-57 9 -52 12 7 1 29 -4 46 -15 54 -12 9 -14 22 -10 54 8 57 21 53 29 -8z
m-1927 -115 c49 -25 59 -104 20 -151 -20 -25 -29 -15 -29 34 0 56 -14 86 -30
62 -14 -22 -12 -93 4 -115 12 -17 12 -21 -3 -32 -27 -21 -40 -15 -51 26 -13
48 2 129 31 166 24 29 22 29 58 10z m-139 -80 c-5 -22 -10 -68 -10 -102 0 -49
-3 -63 -15 -63 -20 0 -21 93 -1 141 7 19 16 43 20 53 11 32 15 12 6 -29z m440
9 c84 -12 169 -15 312 -12 221 3 208 8 172 -64 -24 -47 -102 -84 -151 -72
l-24 6 23 26 c13 13 37 33 53 44 l30 19 -30 -7 c-41 -9 -93 -41 -106 -66 -12
-23 0 -42 40 -62 56 -29 68 -28 104 3 l34 31 27 -38 c14 -21 26 -48 26 -60 0
-14 5 -20 13 -16 8 3 18 -6 25 -20 15 -33 111 -144 204 -235 63 -63 108 -123
108 -144 0 -2 -35 31 -79 74 -43 42 -98 89 -122 104 -64 40 -89 65 -110 110
-17 35 -19 36 -13 10 9 -47 28 -70 101 -121 134 -94 175 -149 192 -261 6 -39
11 -75 11 -80 0 -4 -24 39 -53 97 -47 95 -64 116 -165 217 -103 103 -112 114
-112 150 -1 36 -1 37 -16 18 -16 -20 -64 -122 -64 -134 0 -3 7 3 15 14 15 18
19 15 106 -70 98 -97 108 -111 120 -165 9 -36 1 -130 -10 -130 -6 0 -61 112
-115 233 -12 29 -31 59 -41 67 -16 13 -16 11 2 -25 26 -51 65 -181 61 -203 -2
-9 -18 22 -35 69 -18 46 -46 100 -63 119 l-31 35 30 -55 c29 -55 68 -167 94
-270 l14 -55 -40 -73 c-40 -74 -42 -93 -22 -173 l7 -27 -109 -7 c-229 -14
-268 -21 -309 -49 -38 -25 -43 -26 -191 -26 l-152 0 -99 -60 c-55 -33 -102
-60 -106 -60 -21 0 7 23 104 85 97 62 111 75 122 108 15 48 9 58 -67 117 -32
25 -66 56 -76 70 -21 28 -38 97 -22 87 6 -4 13 -19 16 -35 4 -20 31 -50 86
-97 84 -72 108 -108 96 -146 -6 -18 -4 -21 10 -15 9 3 28 9 41 12 20 5 24 12
24 43 0 32 -9 45 -76 111 -41 41 -82 87 -90 102 -10 20 -14 68 -15 180 0 167
-3 167 -44 18 -33 -121 -49 -139 -40 -45 15 153 50 282 103 383 20 39 38 37
34 -5 -3 -25 5 -38 48 -79 29 -27 55 -48 58 -48 70 15 120 37 132 58 18 35 73
43 124 17 29 -15 35 -22 23 -26 -8 -4 -26 -23 -40 -44 -23 -35 -28 -54 -42
-166 l-6 -50 65 -70 c62 -66 66 -73 67 -120 0 -37 3 -45 9 -30 5 11 9 36 9 55
1 29 -8 44 -60 96 -58 58 -61 64 -55 97 5 27 13 38 36 46 35 12 38 5 9 -25
-26 -27 -19 -50 24 -84 l32 -25 -23 32 c-28 39 -28 44 4 74 l25 24 35 -40 c19
-22 49 -68 66 -103 30 -63 33 -102 13 -167 -4 -13 -1 -11 9 5 29 49 30 95 2
156 -21 46 -25 66 -21 113 l5 56 -18 -39 c-15 -33 -19 -36 -31 -23 -16 21 -8
43 33 90 31 35 35 37 61 25 26 -12 27 -14 20 -73 -3 -34 -3 -75 2 -91 6 -24
10 -12 18 61 l10 90 -39 35 -39 36 21 58 c20 55 20 61 5 90 -9 17 -22 49 -29
71 -11 34 -13 36 -13 13 -1 -15 6 -48 15 -74 18 -53 13 -74 -17 -74 -12 0 -27
-8 -34 -17 -11 -15 -15 -15 -43 5 -16 12 -43 22 -59 22 -31 0 -53 16 -53 37 0
7 11 13 24 13 52 0 59 12 19 30 -39 17 -70 46 -60 56 3 3 25 8 49 11 24 3 46
11 50 17 11 16 10 150 -1 179 -12 32 -66 46 -88 24 -13 -13 -20 -13 -55 1 -32
13 -49 14 -91 5 -29 -6 -54 -9 -55 -8 -2 2 11 11 28 20 25 13 52 16 111 13 88
-4 93 8 7 18 -122 14 -197 -20 -219 -98 -10 -41 -10 -41 37 -89 27 -27 51 -49
54 -49 3 0 4 16 2 35 l-4 35 71 0 c39 0 71 -4 71 -9 0 -5 -5 -22 -10 -37 -8
-19 -8 -29 0 -34 14 -9 -10 -70 -46 -117 -20 -27 -104 -83 -104 -70 0 2 7 25
16 50 l16 48 -39 42 c-22 23 -47 56 -58 74 l-18 31 -51 -52 c-57 -58 -171
-136 -199 -136 -10 0 -37 10 -60 22 l-42 21 65 16 c140 35 170 70 270 314 29
69 35 78 54 73 11 -3 73 -13 136 -22z m-235 -91 c-20 -38 -47 -79 -58 -91 -49
-53 -166 -91 -281 -92 -28 -1 -67 -7 -88 -14 -27 -10 -50 -10 -90 -3 -42 8
-71 6 -124 -6 -38 -8 -71 -13 -73 -11 -2 2 36 23 85 46 l89 43 175 5 c208 6
225 13 329 120 36 38 68 69 69 69 2 1 -13 -29 -33 -66z m794 -115 c33 -58 55
-118 43 -118 -9 0 -65 84 -96 146 -26 50 -27 72 -2 103 9 11 12 4 17 -31 4
-24 21 -70 38 -100z m-492 77 c30 -20 29 -33 -4 -46 -36 -14 -106 -6 -139 16
-30 19 -28 22 23 41 42 15 85 11 120 -11z m-579 -30 c-2 -10 -7 -12 -17 -5
-13 7 -13 11 -1 25 15 18 24 8 18 -20z m2262 28 c0 -4 -28 -33 -62 -64 l-63
-56 -5 -94 c-3 -52 -8 -89 -11 -84 -4 6 -16 40 -28 77 -16 49 -31 74 -52 89
-17 12 -28 26 -26 32 2 6 55 32 118 58 122 51 129 53 129 42z m-2339 -37 l54
-25 -107 0 c-124 -1 -186 -19 -282 -82 -32 -22 -60 -39 -62 -39 -11 0 -1 27
21 56 76 99 259 143 376 90z m2323 -78 c13 -106 27 -551 21 -666 -4 -70 -8
-128 -9 -128 0 -1 -44 -4 -97 -8 l-96 -6 -7 292 c-3 161 -12 330 -20 376 -7
45 -9 82 -5 82 4 0 16 -19 27 -42 31 -65 54 -349 37 -468 -6 -45 -4 -58 9 -69
39 -32 59 20 37 97 -6 20 -7 115 -1 246 9 223 12 237 62 309 27 37 36 34 42
-15z m-2049 -12 c-55 -73 -195 -113 -280 -81 -73 28 -61 35 90 50 78 8 154 30
185 54 35 27 37 18 5 -23z m-270 -130 c131 -67 176 -72 239 -30 23 16 37 21
34 13 -3 -8 -11 -31 -19 -52 -11 -31 -20 -39 -54 -48 -22 -7 -69 -12 -105 -12
-72 -1 -109 14 -218 89 -68 47 -115 64 -174 64 -21 0 -38 4 -38 9 0 17 75 30
150 26 67 -3 86 -9 185 -59z m479 9 c6 -17 -27 -79 -37 -68 -10 10 -8 42 3 64
13 23 26 25 34 4z m-1256 -232 c98 -155 164 -314 206 -504 32 -144 33 -194 1
-79 -58 210 -143 404 -241 551 -52 77 -55 84 -38 96 10 7 19 13 20 13 1 0 24
-35 52 -77z m-145 -25 c-6 -7 -79 -158 -163 -336 -84 -177 -155 -320 -157
-319 -6 6 74 228 115 323 60 136 196 363 209 350 3 -3 1 -11 -4 -18z m2409
-312 c0 -87 -4 -121 -17 -146 -9 -17 -18 -30 -20 -28 -2 1 2 43 8 91 11 85 9
107 -18 272 -4 23 1 18 21 -23 23 -47 26 -65 26 -166z m712 75 c-7 -10 -24 13
-24 33 0 37 15 40 20 4 3 -18 5 -35 4 -37z m-1040 -220 c-15 -28 -30 -51 -34
-51 -4 0 -12 11 -18 25 -13 29 -6 55 36 125 l26 45 9 -47 c8 -41 6 -52 -19
-97z m1276 -1 c65 0 38 -13 -80 -39 -58 -13 -168 -43 -245 -67 -146 -45 -155
-45 -155 3 0 62 193 119 370 107 36 -2 85 -4 110 -4z m-2587 -60 c110 -34 277
-179 277 -241 0 -16 -53 -69 -69 -69 -4 0 -23 19 -43 43 -35 41 -143 115 -154
104 -3 -3 12 -18 33 -34 52 -39 133 -118 133 -130 0 -5 -20 -24 -43 -41 l-44
-31 -49 50 c-27 28 -62 57 -79 66 -22 11 -12 -4 40 -57 l70 -71 -33 -29 -34
-28 -66 45 -67 45 55 -52 55 -52 -39 -34 -39 -33 -41 33 c-22 18 -61 44 -86
58 -91 52 -115 132 -65 213 13 22 25 54 25 72 0 18 7 38 16 45 24 21 86 76
126 113 20 19 41 35 46 35 6 0 39 -9 75 -20z m2697 -70 l0 -30 -152 1 c-84 0
-148 3 -141 5 9 4 238 46 286 53 4 1 7 -12 7 -29z m-733 -16 c47 -35 82 -95
105 -179 18 -69 21 -105 20 -260 0 -113 -6 -214 -16 -270 -43 -250 -49 -317
-37 -391 6 -38 20 -98 30 -132 l19 -61 -31 -5 c-34 -5 -678 -56 -712 -56 -15
0 -11 -6 17 -22 75 -43 80 -138 9 -168 -69 -28 -137 26 -200 160 -76 160 -85
301 -51 806 27 391 16 467 -76 541 l-38 30 170 8 c93 4 241 11 329 15 88 4
222 7 297 6 122 -1 140 -3 165 -22z m-1006 -34 c20 0 94 -78 112 -120 29 -64
33 -214 13 -430 -22 -233 -23 -549 -1 -652 20 -98 38 -149 75 -215 l30 -53
-37 -1 c-38 -1 -37 -1 12 -13 28 -6 69 -24 92 -40 l43 -28 162 7 c90 4 232 12
316 19 84 6 155 9 158 7 2 -2 4 -25 4 -50 0 -71 31 -365 40 -374 10 -11 28
140 36 306 5 95 10 135 17 128 14 -14 -6 -314 -28 -429 -14 -73 -14 -89 -2
-132 l14 -48 -46 -6 c-290 -35 -689 -88 -700 -92 -11 -4 -9 -9 8 -20 12 -9 36
-34 52 -57 79 -109 -16 -198 -148 -138 -93 43 -143 168 -172 426 -40 356 -38
863 3 1230 37 319 43 492 22 574 -21 83 -42 125 -83 168 -37 40 -41 48 -17 39
9 -3 20 -6 25 -6z m-431 -79 c14 -36 23 -38 245 -48 143 -6 160 -9 105 -14
-36 -4 -136 -7 -222 -8 l-158 -1 0 56 c0 58 10 63 30 15z m-84 -104 c-36 -33
-377 -313 -856 -706 -184 -150 -342 -280 -351 -288 -15 -13 -19 -9 -34 38
l-18 53 44 40 c192 172 1000 831 1147 936 l87 62 6 -54 c6 -50 5 -54 -25 -81z
m2374 88 c11 -13 -29 -15 -354 -15 -319 0 -366 2 -366 15 0 13 46 15 354 15
302 0 355 -2 366 -15z m-3744 -29 c134 -45 387 -145 399 -157 11 -11 -11 -4
-275 82 -169 55 -205 63 -271 64 -76 0 -78 -1 -148 -49 -65 -44 -161 -137
-161 -156 0 -4 26 -1 58 6 60 15 311 35 325 27 4 -3 106 -6 225 -7 150 -2 226
-6 247 -15 l30 -13 -45 -12 c-101 -26 -181 -104 -254 -244 -66 -128 -101 -245
-130 -432 -36 -228 -37 -230 -52 -140 -19 116 -27 307 -16 377 20 117 87 251
173 344 25 27 43 49 41 49 -12 0 -95 -66 -139 -112 -103 -107 -162 -218 -234
-445 -13 -40 -27 -73 -32 -73 -15 0 0 236 18 305 25 89 68 177 130 266 55 78
55 80 24 64 -51 -27 -114 -99 -184 -213 -71 -114 -268 -393 -273 -387 -3 3 53
104 185 338 14 24 -15 -7 -107 -113 -57 -66 -105 -118 -108 -116 -7 8 66 135
119 207 59 80 192 209 277 269 35 25 58 46 52 48 -22 8 -247 -19 -324 -38 -44
-11 -82 -18 -85 -15 -2 3 7 30 22 61 68 137 245 263 373 264 22 0 85 -15 140
-34z m704 -246 c16 -7 30 -15 30 -19 0 -4 -36 -42 -79 -85 -87 -87 -94 -88
-124 -23 -32 71 -30 91 19 157 l46 60 39 -39 c21 -21 52 -44 69 -51z m1248 4
c28 -9 -2 -24 -49 -24 -27 0 -49 -4 -49 -9 0 -5 7 -181 16 -392 8 -211 17
-611 18 -889 3 -445 6 -540 29 -800 14 -162 29 -342 33 -400 4 -58 9 -96 12
-85 2 11 26 99 54 195 27 96 52 206 55 243 7 75 30 91 25 16 -5 -63 -17 -114
-67 -284 -64 -215 -75 -273 -75 -417 0 -107 -2 -128 -15 -128 -13 0 -15 25
-15 163 0 184 -12 391 -40 717 -11 124 -23 272 -27 330 -8 124 -9 121 -22 -80
-11 -162 -6 -258 24 -449 38 -247 69 -681 48 -681 -6 0 -13 61 -16 149 -8 176
-30 394 -58 576 -25 167 -25 326 1 624 15 177 20 313 20 555 l-1 321 -29 -110
c-28 -108 -50 -177 -85 -263 -22 -54 -33 -46 -75 55 -44 106 -60 190 -60 326
0 187 38 336 150 581 33 71 59 131 57 132 -1 1 -55 4 -119 8 l-117 7 -25 -43
c-40 -69 -57 -158 -63 -338 -7 -211 3 -301 78 -670 96 -475 119 -661 119 -965
0 -216 -9 -322 -41 -513 -18 -111 -82 -369 -94 -381 -17 -16 -12 20 14 113 76
268 104 476 103 761 0 299 -36 589 -126 1015 -63 297 -70 359 -71 570 0 213
14 312 59 403 l23 47 -34 0 c-24 0 -50 -12 -88 -40 -30 -22 -55 -45 -55 -51 0
-6 7 -115 16 -242 15 -222 14 -237 -5 -421 -40 -368 -45 -463 -45 -771 0 -238
4 -342 17 -446 16 -126 62 -367 70 -376 7 -6 36 107 53 207 20 116 14 386 -10
495 -17 77 -56 209 -59 204 -3 -5 9 -529 16 -707 3 -68 1 -120 -3 -115 -14 14
-59 309 -71 468 -7 91 -10 237 -6 370 6 231 42 676 57 710 5 12 9 -117 9 -327
l1 -346 30 -91 c50 -155 64 -248 65 -436 0 -180 -10 -261 -52 -405 -24 -84
-24 -89 -17 -336 l7 -251 -84 -11 c-46 -7 -92 -12 -101 -12 -15 0 -17 21 -17
228 -2 455 -43 1461 -62 1507 -6 13 -7 7 -4 -20 5 -45 20 -363 35 -735 5 -135
13 -412 16 -615 l7 -371 -40 -12 c-71 -21 -70 -23 -77 91 -24 377 -52 1334
-61 2095 l-5 463 37 34 c21 19 58 49 82 67 l44 31 -7 -44 c-3 -24 -8 -120 -10
-214 l-4 -170 7 140 c20 357 42 361 41 6 0 -362 -35 -696 -41 -396 -3 139 -3
139 -7 35 -2 -58 0 -148 4 -200 l8 -95 17 124 c28 200 42 449 34 631 -3 91 -9
175 -11 186 -5 18 12 35 98 98 57 42 117 80 133 85 29 8 447 4 473 -5z m-1465
-54 c7 -76 39 -144 83 -174 l34 -23 -84 -66 c-46 -37 -86 -67 -89 -67 -3 0 1
26 9 58 21 91 16 93 -19 6 -31 -76 -74 -142 -112 -174 -15 -12 -16 -10 -10 26
4 21 18 79 31 129 12 49 21 91 20 92 -1 2 -25 -52 -53 -120 -49 -120 -99 -214
-110 -204 -2 3 0 14 6 26 12 21 61 221 61 243 -1 7 -22 -43 -49 -112 -52 -136
-80 -195 -87 -187 -7 7 43 270 63 332 35 111 96 200 157 232 25 13 104 38 137
42 3 1 9 -26 12 -59z m285 0 c-4 -13 -159 -150 -169 -150 -19 0 -4 18 74 87
78 68 103 85 95 63z m-44 -95 c-48 -41 -92 -75 -98 -75 -5 0 10 17 35 37 24
21 62 55 84 75 22 21 46 38 53 38 8 0 -26 -34 -74 -75z m303 -492 c-2 -237 -7
-327 -20 -391 -9 -45 -22 -175 -29 -290 -17 -290 -15 -1051 2 -1352 8 -135 15
-267 15 -294 l0 -49 -77 -29 c-43 -15 -78 -24 -78 -20 0 4 8 45 17 92 14 72
17 163 18 575 0 270 4 506 8 525 12 57 2 25 -54 -172 -29 -104 -55 -188 -58
-188 -3 0 -4 147 -1 327 4 223 2 344 -5 378 -9 41 -8 63 6 125 51 215 89 556
89 804 l0 141 78 62 c42 34 81 62 85 63 4 0 6 -138 4 -307z m-177 55 c0 -130
-17 -361 -35 -498 -21 -153 -47 -294 -57 -305 -10 -11 -10 148 1 547 l9 307
28 25 c49 43 54 37 54 -76z m-117 -130 l-6 -153 -53 -140 c-62 -167 -97 -280
-92 -296 2 -7 15 23 27 67 26 86 100 295 110 306 3 4 7 -126 7 -288 l2 -294
-77 0 -76 1 38 31 c37 30 67 75 67 99 0 8 -18 10 -60 7 l-60 -4 0 51 c0 74 18
294 40 495 l20 175 52 47 c29 26 56 47 60 48 5 0 5 -69 1 -152z m-127 25 c-13
-46 -56 -499 -56 -600 0 -79 -6 -93 -40 -93 -27 0 -28 2 -34 63 -3 34 -8 168
-11 297 l-6 235 68 57 c73 61 87 68 79 41z m-693 -85 c4 -46 18 -123 32 -173
29 -105 29 -105 11 -105 -18 0 -76 129 -76 172 0 66 13 188 20 188 4 0 10 -37
13 -82z m-62 -274 c30 -72 31 -76 13 -89 -25 -18 -30 -11 -59 71 -25 71 -31
151 -18 229 7 37 8 34 20 -48 7 -49 26 -121 44 -163z m-356 133 c-5 -57 -2
-125 10 -215 9 -72 14 -136 10 -142 -7 -12 -42 -13 -49 -2 -3 5 -8 53 -12 108
-5 81 -2 120 16 217 12 64 24 117 27 117 3 0 2 -37 -2 -83z m763 -63 c-7 -7
-69 -45 -138 -85 -111 -63 -380 -236 -420 -271 -20 -17 -46 -54 -110 -158 -56
-91 -57 -79 -5 35 41 89 114 187 162 219 21 14 146 88 278 164 176 103 241
136 243 125 2 -9 -2 -21 -10 -29z m43 -137 c-17 -17 -24 78 -10 135 l14 53 3
-89 c2 -49 -2 -94 -7 -99z m748 -702 c6 -225 18 -580 28 -788 9 -207 14 -379
11 -382 -3 -3 -21 -8 -40 -12 l-35 -5 -7 93 c-40 580 -36 1569 6 1844 l13 80
7 -210 c4 -115 11 -394 17 -620z m2031 385 c0 -300 -1 -310 -19 -310 -19 0
-20 11 -23 298 -2 163 -1 303 1 310 2 6 12 12 22 12 18 0 19 -13 19 -310z
m-2716 264 c13 -5 16 -25 16 -115 0 -108 0 -109 -26 -115 -21 -5 -175 3 -180
9 -1 1 -4 53 -7 115 l-6 112 94 0 c51 0 100 -3 109 -6z m266 -243 c0 -19 -77
-72 -125 -87 -145 -44 -406 -39 -489 10 -22 13 -50 34 -60 45 l-20 22 70 -8
c127 -15 479 0 617 26 4 0 7 -3 7 -8z m103 -161 c5 -4 7 -24 5 -44 l-3 -37
-262 -5 -263 -5 0 45 0 44 83 6 c45 3 98 8 117 10 55 5 314 -6 323 -14z m11
-787 c4 -368 9 -684 12 -705 6 -35 4 -37 -48 -71 l-54 -34 4 -150 c4 -128 2
-151 -11 -156 -23 -9 -23 -5 -52 1208 -6 219 -21 500 -30 542 -5 24 -14 22
141 31 l31 2 7 -667z m-194 650 c0 -5 5 -46 10 -93 9 -74 25 -575 45 -1385 4
-132 8 -253 10 -268 3 -23 -2 -30 -23 -38 -47 -18 -52 -8 -52 98 0 124 -15
334 -40 578 -32 312 -50 875 -33 1048 l6 67 38 0 c22 0 39 -3 39 -7z m3268
-93 c6 0 12 -6 12 -12 0 -30 -53 -122 -97 -169 -66 -71 -112 -93 -195 -94 -36
0 -69 3 -72 6 -5 5 90 253 115 300 8 16 17 15 116 -7 60 -13 114 -23 121 -24z
m-4346 -177 c-5 -231 7 -330 52 -429 47 -102 159 -188 297 -228 29 -9 142 -36
249 -60 170 -39 378 -102 368 -112 -2 -2 -28 3 -58 11 -93 25 -281 63 -365 75
-437 62 -599 241 -582 645 3 94 33 305 43 305 0 0 -1 -93 -4 -207z m3704 173
c57 -57 36 -133 -44 -156 -115 -32 -824 -131 -839 -116 -3 2 0 13 6 24 20 37
13 106 -14 146 l-24 36 22 5 c37 8 558 69 757 88 94 10 101 8 136 -27z m1161
-65 c62 -9 115 -20 119 -23 3 -4 -17 -75 -45 -160 -56 -171 -52 -168 -136
-126 -112 56 -151 158 -109 281 19 55 10 53 171 28z m-3472 -876 c-3 -60 -13
-159 -22 -218 -12 -87 -19 -110 -35 -118 -11 -6 -22 -8 -25 -6 -2 3 -5 189 -6
414 l-2 408 40 134 40 133 7 -318 c5 -176 6 -368 3 -429z m3818 714 c20 -5 37
-13 37 -16 0 -26 -136 -441 -142 -435 -4 4 19 102 52 217 33 115 59 209 57
210 -30 14 -61 25 -64 21 -2 -2 -29 -84 -60 -183 -50 -163 -73 -220 -73 -183
0 26 112 365 124 372 15 10 24 10 69 -3z m-1703 -141 c-28 -131 -80 -280 -138
-392 -45 -88 -47 -95 -52 -196 -4 -85 -8 -105 -21 -108 -14 -2 -15 21 -15 202
l1 205 -92 180 c-53 104 -87 181 -79 181 7 0 50 -75 95 -167 l83 -168 -7 160
c-3 88 -7 169 -8 180 -1 11 5 21 15 23 14 3 17 -12 23 -105 3 -59 7 -112 9
-117 3 -15 76 166 83 207 3 20 10 37 14 37 5 0 9 -4 9 -9 0 -21 -44 -149 -74
-215 -32 -71 -32 -71 -28 -204 l4 -134 40 84 c54 113 103 264 124 378 20 115
26 134 32 102 2 -13 -6 -69 -18 -124z m1619 -95 c-35 -103 -65 -180 -67 -170
-2 10 17 88 43 174 61 202 63 209 76 196 8 -8 -7 -65 -52 -200z m-2095 -73
c42 -368 54 -540 37 -540 -4 0 -11 48 -15 108 -9 140 -33 375 -55 535 -9 70
-15 130 -12 132 13 14 21 -28 45 -235z m-254 222 c0 -5 -21 -64 -46 -133 -97
-264 -139 -464 -132 -642 2 -62 -1 -96 -7 -94 -6 2 -10 60 -9 148 0 172 21
278 94 492 64 188 83 237 92 237 4 0 8 -4 8 -8z m116 -69 c4 -43 8 -226 8
-408 1 -289 -1 -330 -14 -333 -14 -2 -15 25 -12 225 2 140 -1 224 -6 218 -5
-5 -24 -120 -42 -255 -18 -135 -37 -249 -41 -255 -14 -15 -12 10 36 349 41
293 44 330 37 421 -9 106 -8 115 13 115 9 0 16 -23 21 -77z m1461 -126 c169
-44 237 -209 168 -412 -42 -127 -110 -221 -187 -261 -43 -22 -144 -29 -205
-15 -171 41 -233 268 -133 488 51 113 115 174 208 199 62 17 87 17 149 1z
m590 -69 c119 -101 221 -201 218 -211 -3 -7 -9 -25 -15 -40 l-10 -28 -57 44
c-32 24 -94 69 -137 100 -76 55 -82 57 -141 57 -68 0 -91 14 -80 49 13 41 53
61 121 61 57 0 67 -3 101 -32z m-145 -306 c-32 -96 -62 -172 -67 -170 -6 2 -9
8 -7 13 9 28 106 303 115 325 5 14 11 20 13 15 2 -6 -22 -88 -54 -183z m112
149 c3 -5 -21 -87 -54 -182 -77 -221 -71 -207 -77 -190 -6 16 107 381 118 381
4 0 10 -4 13 -9z m46 -43 c0 -22 -115 -378 -122 -378 -14 0 -8 23 50 207 50
160 72 212 72 171z m52 -33 c8 -9 -118 -386 -128 -383 -5 2 -8 5 -8 8 2 7 104
353 109 368 5 12 18 16 27 7z m-4882 -20 c17 -9 30 -18 30 -20 0 -2 -24 -16
-54 -30 -30 -14 -90 -53 -133 -86 -108 -83 -140 -98 -241 -110 -48 -5 -107
-17 -131 -26 -37 -13 -52 -14 -97 -4 -30 7 -54 16 -54 20 0 15 55 33 170 56
137 27 185 49 260 120 45 44 67 56 125 73 89 25 90 25 125 7z m4874 -210 c-61
-193 -69 -214 -79 -203 -4 3 21 94 54 202 34 109 61 200 61 203 0 4 5 2 11 -4
9 -9 -3 -59 -47 -198z m-4760 156 l39 -17 -54 -34 c-81 -51 -169 -120 -169
-132 0 -23 241 20 409 74 84 27 103 29 168 23 40 -4 73 -10 73 -15 0 -9 -144
-61 -250 -90 -41 -11 -165 -32 -275 -46 -110 -14 -236 -36 -280 -49 l-80 -24
-112 32 c-62 18 -113 35 -113 38 0 8 113 29 152 29 56 0 126 32 218 101 87 66
200 130 225 128 6 0 28 -8 49 -18z m-390 -27 c-54 -50 -128 -82 -228 -100 -90
-15 -157 -36 -192 -59 -18 -12 -32 -11 -103 7 -45 11 -79 23 -76 27 9 8 585
158 614 160 23 1 22 -1 -15 -35z m558 -22 c48 -10 90 -20 93 -23 7 -8 -117
-44 -230 -68 -118 -25 -165 -31 -165 -23 1 14 183 132 204 132 6 0 50 -8 98
-18z m513 -93 l30 -11 -31 -13 c-16 -8 -147 -47 -290 -89 -142 -41 -303 -89
-357 -105 -96 -30 -99 -30 -170 -17 -124 24 -222 48 -230 56 -14 12 108 38
313 65 204 27 345 60 493 118 87 34 90 34 151 21 34 -7 75 -18 91 -25z m2529
-80 c6 -6 7 -10 1 -7 -14 8 -199 -9 -260 -23 -59 -14 -181 -67 -173 -75 4 -3
19 1 35 9 88 46 249 71 401 61 62 -3 111 -8 110 -10 -2 -1 -48 -10 -103 -19
-180 -28 -279 -62 -350 -120 -18 -14 -17 -14 14 1 93 45 201 70 426 99 112 15
245 13 245 -4 0 -3 -55 -14 -123 -23 -221 -31 -411 -92 -461 -147 -11 -12 8
-6 58 20 89 47 176 71 362 98 197 29 353 37 444 21 41 -7 71 -14 65 -16 -5 -2
-89 -10 -185 -19 -218 -20 -364 -48 -457 -86 -68 -29 -203 -115 -219 -140 -8
-14 1 -9 63 33 63 42 200 105 265 122 89 23 296 46 483 54 l170 8 144 -48 c79
-26 145 -48 146 -50 2 -2 -175 -3 -393 -3 -385 0 -399 -1 -477 -23 -124 -36
-227 -96 -316 -182 -42 -42 -79 -86 -83 -98 -11 -32 -18 -27 -45 29 -60 129
-178 248 -358 362 -46 28 -83 55 -83 60 0 30 194 108 315 127 83 13 324 5 339
-11z m1371 -86 c65 -60 122 -115 128 -123 6 -10 4 -27 -5 -48 l-13 -33 -135
103 -135 103 -70 5 c-62 4 -70 7 -73 26 -2 14 8 30 28 48 27 22 41 26 94 26
l62 0 119 -107z m-5502 50 l78 -16 -23 -24 c-36 -38 -120 -73 -177 -73 l-51 0
0 63 c0 35 2 66 5 69 8 8 77 0 168 -19z m2912 -13 c92 -8 386 -49 392 -54 1 0
-143 -1 -320 -1 -289 -1 -334 -3 -441 -23 -126 -24 -313 -81 -349 -108 -12 -9
-15 -14 -7 -11 289 103 393 121 735 121 244 0 411 -11 488 -32 15 -4 -82 -7
-216 -8 -260 -1 -357 -12 -536 -60 -98 -27 -264 -84 -259 -89 2 -2 55 12 118
31 262 77 412 96 680 83 295 -14 333 -25 85 -26 -223 0 -313 -9 -465 -48 -114
-28 -263 -75 -258 -80 2 -2 55 10 118 26 234 60 339 74 545 74 213 -1 392 -18
415 -41 13 -13 3 -14 -90 -7 -193 14 -447 9 -540 -10 -98 -21 -302 -78 -297
-83 2 -2 46 5 98 15 320 67 698 79 872 30 59 -16 36 -22 -30 -8 -74 16 -289
16 -413 0 -138 -18 -314 -56 -484 -103 l-148 -42 -252 83 c-336 112 -416 141
-416 153 0 21 217 107 395 156 244 68 369 81 580 62z m-2712 -36 c37 -9 67
-19 67 -23 0 -22 -209 -130 -255 -131 -24 0 -165 52 -165 61 0 3 25 9 55 12
59 6 139 44 176 83 13 13 30 22 38 20 9 -3 46 -13 84 -22z m5651 -4 l29 0 -40
-37 c-79 -75 -123 -187 -123 -318 0 -70 31 -207 52 -233 6 -7 9 -15 6 -18 -6
-5 -239 74 -252 86 -9 9 59 247 75 264 5 5 14 4 22 -3 12 -9 19 1 41 59 28 78
32 100 15 117 -7 7 -7 23 1 53 l12 43 66 -7 c37 -3 80 -6 96 -6z m268 -39 c58
-37 103 -103 123 -178 39 -144 -36 -302 -177 -372 -110 -55 -162 -53 -203 6
-14 21 -25 42 -25 47 0 5 30 6 70 2 135 -14 230 28 271 118 21 47 26 176 9
238 -28 101 -128 153 -237 125 -58 -15 -60 -7 -5 23 56 29 119 26 174 -9z
m-5746 -2 c58 -15 63 -25 16 -34 -46 -8 -132 -46 -194 -87 -46 -29 -50 -30
-98 -18 l-51 12 98 49 c54 26 112 59 128 73 17 14 36 23 44 20 7 -2 33 -9 57
-15z m4984 -30 c0 -17 -101 -292 -112 -303 -18 -21 -6 25 44 167 47 130 68
173 68 136z m-4830 -44 c66 -44 136 -65 222 -65 l68 0 0 -65 c0 -72 -9 -80
-53 -45 -14 11 -61 37 -104 58 -65 30 -89 37 -144 37 -40 1 -76 7 -90 16 -39
24 -78 39 -104 39 -44 0 -27 17 38 38 87 29 108 27 167 -13z m139 -1 c47 -7
101 -19 120 -25 l36 -12 -30 -8 c-56 -16 -193 16 -248 57 -22 16 -22 16 8 9
17 -4 68 -13 114 -21z m4731 20 c0 -8 -131 -417 -137 -427 -2 -4 -8 -5 -13 -2
-9 6 131 435 142 435 5 0 8 -3 8 -6z m695 -35 c44 -39 70 -119 62 -195 -10
-101 -58 -148 -160 -160 l-57 -7 -25 54 -25 54 29 3 c20 2 37 -4 55 -22 91
-92 200 76 136 209 -24 49 -65 75 -120 75 -25 0 -39 4 -35 10 3 6 28 10 55 10
41 0 55 -5 85 -31z m-705 -196 c-34 -105 -66 -196 -70 -204 -19 -29 -19 1 0
57 10 32 40 126 65 208 31 98 50 145 57 138 6 -6 -11 -74 -52 -199z m540 171
c0 -3 -13 -22 -29 -42 -53 -68 -63 -137 -35 -231 8 -29 14 -54 12 -56 -2 -2
-15 -1 -30 2 -31 6 -45 37 -54 117 -10 91 52 216 107 216 16 0 29 -3 29 -6z
m-5524 -40 c66 -39 95 -64 76 -64 -13 0 -246 48 -276 57 -19 5 -19 6 3 24 17
14 39 19 80 19 48 0 67 -6 117 -36z m5088 15 c-3 -31 -118 -379 -126 -379 -4
0 -8 5 -8 11 0 30 116 388 125 385 6 -2 9 -9 9 -17z m570 -2 c38 -27 38 -126
1 -183 -20 -31 -56 -29 -70 4 -8 18 -18 22 -53 22 -55 0 -63 19 -32 77 42 80
108 114 154 80z m-579 -234 c-37 -114 -71 -212 -75 -217 -8 -8 -67 2 -152 24
-30 9 -35 14 -31 31 4 15 11 19 27 15 11 -3 49 -12 83 -20 l62 -14 15 46 c8
26 35 112 61 192 59 189 54 175 67 162 8 -8 -7 -67 -57 -219z m-4888 191 c48
-16 138 -63 131 -69 -2 -2 -39 2 -83 9 -76 11 -155 45 -155 67 0 14 54 11 107
-7z m1631 -114 c430 -139 372 -130 532 -81 314 95 452 116 685 107 275 -10
281 -21 15 -29 -129 -3 -271 -11 -315 -17 -118 -16 -295 -62 -420 -109 l-111
-42 -314 102 c-173 56 -333 106 -355 113 -29 9 -41 18 -43 34 -2 12 1 22 7 22
6 0 149 -45 319 -100z m-1999 58 c28 -6 51 -15 51 -20 0 -5 -9 -26 -20 -48
-16 -32 -27 -40 -55 -45 -19 -3 -51 -7 -70 -10 -19 -3 -35 -4 -35 -1 0 15 61
136 69 136 5 0 32 -5 60 -12z m4868 -23 c34 -20 63 -37 63 -38 0 -1 -170 -1
-378 1 -208 2 -408 -1 -445 -6 -36 -4 -64 -5 -62 -1 8 12 156 48 245 59 111
13 163 16 354 18 l159 2 64 -35z m-4607 -26 c96 -18 176 -33 178 -35 2 -1 -3
-15 -11 -31 -28 -55 -68 -188 -88 -297 -33 -177 -35 -405 -9 -774 23 -318 24
-532 4 -552 -7 -7 -25 -9 -46 -5 l-35 7 5 176 c6 222 -10 334 -75 522 -42 122
-47 147 -53 260 -4 69 -5 131 -2 139 3 8 1 12 -5 8 -6 -4 -13 -17 -16 -29 -26
-123 -279 -912 -298 -932 -11 -13 -190 44 -196 62 -3 7 10 99 30 205 34 184
37 196 85 280 55 97 123 265 173 425 17 56 33 102 36 102 2 0 18 -7 35 -16 38
-20 59 -16 194 37 76 30 107 47 113 63 10 24 41 232 41 269 0 22 -7 25 -100
46 -55 13 -118 21 -140 19 -22 -2 -40 -2 -40 -1 0 11 34 83 39 83 3 0 85 -14
181 -31z m1773 -110 c188 -61 344 -112 347 -114 3 -2 70 9 148 25 334 67 611
81 927 46 88 -10 161 -19 163 -21 2 -2 -167 -3 -375 -2 -405 2 -410 2 -695
-55 l-158 -32 -222 72 c-123 39 -281 89 -353 110 -113 33 -130 41 -133 60 -2
12 0 22 3 22 4 0 161 -50 348 -111z m2935 29 c-4 -10 -97 -14 -399 -19 -217
-4 -454 -12 -528 -18 -73 -6 -136 -10 -138 -7 -5 5 97 22 217 35 52 6 109 13
125 15 17 1 187 4 378 5 275 1 348 -2 345 -11z m-4802 -19 c80 -25 78 -27 -68
-54 l-97 -18 -45 24 c-25 13 -46 26 -46 29 0 3 42 13 93 21 50 9 93 17 93 17
1 1 33 -8 70 -19z m1885 -94 l340 -105 112 14 c227 30 398 40 652 39 143 -1
282 -5 309 -10 34 -5 -26 -8 -190 -9 -243 -2 -478 -21 -763 -63 l-132 -19
-132 44 c-72 25 -226 74 -342 108 -182 55 -210 66 -213 85 -2 11 2 21 8 21 6
0 164 -47 351 -105z m2899 31 c0 -18 -89 -24 -515 -31 -181 -3 -386 -8 -455
-12 -69 -3 -122 -3 -119 1 11 11 422 36 739 45 162 4 307 9 323 9 17 1 27 -3
27 -12z m-4977 -111 c4 -26 7 -72 5 -101 l-3 -54 -55 33 -55 33 -5 98 c-3 54
-3 99 -1 101 2 2 26 -11 55 -29 46 -29 51 -37 59 -81z m283 88 c-3 -10 -8 -45
-12 -78 -11 -96 -12 -97 -113 -130 -50 -16 -93 -26 -96 -23 -4 3 -7 47 -8 99
l-2 92 105 28 c127 33 133 34 126 12z m1639 -63 c174 -48 418 -126 456 -146
23 -11 45 -11 143 1 340 42 530 50 1186 47 349 -2 786 2 971 9 332 11 338 11
440 -11 57 -12 108 -23 113 -24 4 0 18 26 31 59 13 33 27 59 31 57 5 -1 86
-28 179 -59 l170 -57 -55 -8 c-30 -4 -102 -11 -160 -16 -58 -5 -159 -22 -225
-36 -66 -15 -280 -52 -475 -82 -527 -80 -851 -139 -1375 -250 -201 -42 -235
-46 -400 -51 -132 -4 -212 -1 -299 11 -87 11 -123 12 -133 4 -8 -6 -29 -8 -53
-4 -58 9 -325 87 -577 168 l-223 72 0 118 c0 65 3 118 6 118 3 0 157 -47 342
-105 l337 -106 147 0 147 1 -24 -70 c-13 -39 -22 -70 -20 -70 3 0 127 25 277
54 330 66 573 106 853 141 116 14 235 29 265 34 68 9 -112 6 -865 -15 -613
-18 -714 -16 -885 20 -164 35 -579 163 -690 214 l-35 16 55 7 c102 13 189 2
345 -41z m-455 -101 c0 -92 -2 -108 -15 -103 -12 5 -15 27 -15 115 0 92 2 108
15 103 12 -5 15 -27 15 -115z m3520 77 c0 -9 -18 -15 -52 -20 -69 -8 -556 -6
-723 3 l-130 8 95 3 c52 1 226 6 385 9 160 4 320 8 358 9 51 2 67 -1 67 -12z
m-3460 -106 c0 -60 -4 -110 -8 -110 -24 0 -32 30 -32 122 0 91 1 98 20 98 19
0 20 -7 20 -110z m74 80 c26 -9 26 -10 26 -130 l0 -120 -40 20 -40 20 0 110
c0 119 1 121 54 100z m-1711 -124 l54 -35 -57 -173 c-49 -147 -154 -388 -165
-377 -3 4 108 619 112 619 1 0 27 -15 56 -34z m1687 -211 l105 -44 -3 -38 c-1
-21 -9 -112 -17 -202 -8 -90 -14 -165 -12 -167 1 -2 17 85 35 193 18 108 34
199 37 201 2 2 20 -1 40 -8 l35 -12 -5 -51 c-27 -232 -59 -382 -91 -420 -27
-32 -48 -100 -40 -131 5 -20 -49 -155 -58 -145 -2 2 5 56 15 119 10 63 19 118
19 121 0 3 -40 34 -90 69 l-90 63 0 248 c0 137 3 249 8 249 4 0 54 -20 112
-45z m-1382 -380 c28 -82 56 -186 62 -231 12 -81 11 -417 -1 -429 -12 -11
-399 100 -399 116 0 4 23 67 51 140 58 155 133 392 179 564 42 161 43 162 51
70 5 -55 22 -126 57 -230z m1697 276 l50 -18 -3 -69 c-4 -88 -20 -248 -28
-279 -5 -20 -14 -25 -52 -30 -26 -3 -62 -8 -81 -11 -33 -5 -33 -5 -26 23 19
75 44 226 50 298 10 120 5 116 90 86z m190 -60 c88 -27 90 -29 99 -65 9 -36
-7 -272 -19 -285 -3 -2 -11 1 -17 7 -8 8 -49 12 -116 12 -103 0 -104 0 -98 23
3 12 12 93 18 180 10 130 15 157 28 157 8 0 56 -13 105 -29z m229 -67 l93 -26
-25 -76 c-22 -67 -26 -94 -26 -212 l0 -135 52 -161 c61 -188 102 -359 102
-428 l0 -48 -47 7 c-27 4 -51 12 -55 18 -14 22 -69 226 -91 337 l-24 115 -6
-100 c-8 -115 -21 -197 -45 -273 l-16 -53 -40 6 c-58 10 -196 42 -202 47 -7 7
195 418 206 418 13 0 47 68 55 110 5 29 0 45 -29 93 -34 57 -35 58 -24 120 5
34 11 108 11 164 1 57 5 103 10 103 4 0 49 -12 101 -26z m-1713 -174 c6 -30
33 -123 60 -206 74 -233 82 -351 33 -473 l-17 -43 -50 6 c-28 4 -58 11 -68 16
-20 11 -37 82 -46 190 -9 127 21 488 54 635 6 28 7 27 15 -20 4 -27 13 -75 19
-105z m1559 -167 l21 -28 -23 -6 c-13 -3 -87 -14 -166 -24 l-142 -18 -31 29
-30 29 21 -48 c23 -52 29 -122 11 -140 -16 -16 -57 7 -81 45 -13 22 -20 50
-20 83 0 95 23 105 247 105 l172 0 21 -27z m-386 -257 c19 -9 46 -16 60 -16
32 0 32 -6 0 -55 -35 -53 -79 -99 -137 -146 l-48 -39 -40 20 c-44 23 -43 18
-27 112 8 51 21 85 45 121 18 27 36 60 39 74 6 24 7 23 40 -15 18 -22 49 -47
68 -56z m416 80 c0 -30 -27 -35 -168 -34 -79 0 -140 3 -137 7 6 6 223 37 278
40 17 1 27 -4 27 -13z m-40 -60 c0 -2 -42 -92 -94 -200 -87 -181 -112 -217
-129 -188 -3 4 -8 86 -12 183 l-7 175 109 16 c133 19 133 19 133 14z m-251
-280 l1 -98 -27 7 c-26 6 -192 74 -202 82 -3 2 6 11 20 20 49 34 118 106 156
160 l38 56 6 -64 c4 -35 7 -108 8 -163z m452 -88 c18 -60 30 -110 28 -113 -9
-9 -129 18 -129 29 0 6 9 38 19 71 10 33 22 85 26 115 7 46 9 51 15 30 5 -14
23 -73 41 -132z"/>
<path d="M4700 7155 c7 -8 24 -14 39 -14 20 1 22 2 6 6 -11 3 -24 9 -29 14
-16 15 -29 10 -16 -6z"/>
<path d="M4255 6751 c-13 -29 -16 -56 -13 -101 l4 -61 104 -104 c112 -111 118
-120 119 -177 1 -20 6 -40 12 -44 9 -5 10 12 5 62 -7 63 -10 72 -44 102 -112
102 -163 154 -172 177 -13 34 -13 116 0 151 16 42 5 38 -15 -5z"/>
<path d="M4336 6735 c-9 -13 -16 -34 -16 -46 0 -23 60 -139 72 -139 4 0 -10
31 -30 69 l-37 69 17 36 c20 42 17 47 -6 11z"/>
<path d="M4799 6665 c-4 -27 1 -59 14 -96 l20 -56 -37 -89 c-50 -119 -52 -126
-22 -79 14 22 37 72 52 111 25 70 25 72 8 105 -9 19 -20 59 -24 89 l-6 55 -5
-40z"/>
<path d="M4138 6621 c-8 -75 -5 -83 76 -190 31 -42 57 -86 57 -100 1 -25 2
-24 8 4 6 26 0 38 -38 88 -76 95 -86 116 -91 192 l-5 70 -7 -64z"/>
<path d="M4424 6597 c9 -21 29 -55 46 -75 18 -23 30 -48 30 -67 0 -16 5 -37
11 -45 8 -11 9 -1 4 35 -5 36 -17 62 -41 92 -19 23 -34 45 -34 50 0 5 -7 18
-15 29 -14 17 -14 15 -1 -19z"/>
<path d="M4215 6565 c3 -16 26 -50 49 -75 53 -56 70 -96 62 -152 -4 -31 -3
-36 3 -18 25 72 6 138 -53 187 -19 15 -42 42 -51 58 l-17 30 7 -30z"/>
<path d="M4890 6060 c-25 -3 114 -6 307 -6 194 1 353 4 353 9 0 9 -596 7 -660
-3z"/>
<path d="M4870 5923 c0 -5 164 -8 365 -8 201 0 365 3 365 8 0 4 -164 7 -365 7
-201 0 -365 -3 -365 -7z"/>
<path d="M5058 5783 c106 -2 277 -2 380 0 103 1 16 2 -193 2 -209 0 -293 -1
-187 -2z"/>
<path d="M5048 5643 c105 -2 279 -2 385 0 105 1 19 2 -193 2 -212 0 -298 -1
-192 -2z"/>
<path d="M4910 5513 c155 -7 700 -7 700 0 0 4 -172 6 -382 5 -211 -1 -354 -3
-318 -5z"/>
<path d="M4830 5371 c-11 -8 56 -11 225 -11 132 0 305 -2 385 -4 122 -4 130
-3 55 3 -159 15 -649 23 -665 12z"/>
<path d="M4910 5231 c-52 -3 76 -6 285 -6 209 0 340 3 290 6 -106 8 -439 8
-575 0z"/>
<path d="M4842 5085 c7 -7 720 -6 727 0 2 3 -161 5 -364 5 -203 0 -366 -2
-363 -5z"/>
<path d="M5260 4949 c-367 -13 -384 -17 -55 -12 171 3 333 9 360 13 l50 7 -65
0 c-36 0 -166 -4 -290 -8z"/>
<path d="M4740 4530 c0 -7 116 -10 357 -10 196 0 354 2 352 4 -2 2 -163 6
-356 10 -242 5 -353 4 -353 -4z"/>
<path d="M4935 4410 c-194 -5 -190 -6 95 -7 162 0 327 3 365 7 85 8 -155 9
-460 0z"/>
<path d="M4820 4270 c83 -10 505 -10 590 -1 36 4 -97 8 -295 8 -203 0 -332 -3
-295 -7z"/>
<path d="M5078 4182 c-214 -2 -298 -5 -298 -14 0 -8 26 -9 92 -4 50 3 214 6
365 6 181 0 273 3 273 10 0 7 -26 10 -67 8 -38 -2 -202 -4 -365 -6z"/>
<path d="M5093 4060 c-155 -3 -285 -9 -290 -14 -9 -9 529 1 667 14 l85 7 -90
-1 c-49 0 -217 -3 -372 -6z"/>
<path d="M4453 5585 c-107 -243 -135 -355 -135 -545 0 -94 5 -144 21 -202 22
-85 59 -178 71 -178 10 0 64 151 98 275 26 98 27 106 25 340 -2 132 -6 287
-10 345 l-8 105 -62 -140z"/>
<path d="M6306 3941 c-4 -5 2 -7 12 -4 10 2 24 -2 31 -11 30 -35 -12 -81 -51
-57 -23 14 -23 14 -4 -8 11 -11 27 -21 38 -21 22 0 58 34 58 55 0 35 -68 72
-84 46z"/>
<path d="M7005 3823 c39 -10 48 -55 14 -73 -16 -9 -25 -8 -40 6 -11 9 -19 12
-19 6 0 -6 11 -19 25 -28 21 -13 31 -15 50 -6 54 25 35 103 -24 101 -21 -1
-22 -2 -6 -6z"/>
<path d="M6276 3282 c-7 -11 100 -57 160 -68 21 -4 70 -18 108 -31 81 -27 86
-27 86 -10 0 9 -56 31 -152 62 -185 57 -194 60 -202 47z"/>
<path d="M6240 3207 c0 -7 17 -19 38 -26 20 -8 87 -33 147 -56 124 -49 190
-65 183 -45 -2 6 -42 24 -88 40 -47 15 -125 44 -174 64 -100 40 -106 41 -106
23z"/>
<path d="M6220 3116 c0 -11 296 -131 324 -131 24 0 13 22 -16 34 -132 53 -308
108 -308 97z"/>
<path d="M6685 2030 c-66 -5 -268 -13 -450 -20 -578 -20 -1095 -85 -1753 -221
-196 -41 -203 -43 -221 -73 -11 -16 -18 -33 -15 -37 10 -17 239 -32 409 -26
166 5 199 10 425 57 513 108 908 178 1480 265 129 20 262 42 295 49 l60 14
-55 -1 c-30 0 -109 -3 -175 -7z"/>
<path d="M6350 8242 c0 -4 15 -16 34 -24 90 -43 140 -118 155 -233 7 -61 9
-64 10 -24 2 72 -24 141 -73 196 -42 46 -126 104 -126 85z"/>
<path d="M5765 8106 c-39 -18 -79 -44 -90 -56 -22 -26 -8 -20 41 17 16 12 59
34 95 47 35 14 55 25 44 26 -11 0 -52 -15 -90 -34z"/>
<path d="M6270 8085 c0 -2 13 -11 30 -20 40 -21 69 -53 79 -90 9 -30 9 -30 10
-3 1 31 -38 82 -80 103 -29 16 -39 18 -39 10z"/>
<path d="M5257 7753 c-10 -10 -8 -120 3 -192 16 -93 60 -182 126 -251 31 -33
60 -60 65 -60 4 0 -17 25 -47 57 -99 103 -156 269 -138 405 6 47 4 55 -9 41z"/>
<path d="M5380 7702 c0 -63 25 -157 55 -209 31 -51 76 -106 83 -99 2 3 -10 22
-28 43 -60 68 -109 210 -98 285 3 15 1 28 -4 28 -4 0 -8 -22 -8 -48z"/>
<path d="M5535 7673 c4 -52 28 -113 44 -113 5 0 0 17 -11 38 -10 21 -23 59
-28 83 l-9 44 4 -52z"/>
<path d="M6456 7539 c-2 -8 -10 -36 -17 -63 -7 -27 -27 -69 -46 -92 -18 -24
-29 -44 -24 -44 23 0 75 92 90 161 9 40 7 69 -3 38z"/>
<path d="M6576 7510 c-11 -58 -66 -175 -107 -229 -22 -29 -38 -55 -36 -57 8
-8 79 92 107 151 33 71 62 165 51 165 -5 0 -11 -14 -15 -30z"/>
<path d="M6714 7494 c-35 -157 -70 -242 -140 -342 -47 -67 -56 -97 -11 -39 39
52 85 133 111 196 27 67 61 200 53 208 -3 3 -9 -8 -13 -23z"/>
<path d="M2900 7412 c0 -5 32 -58 70 -117 39 -59 70 -113 70 -118 0 -6 2 -8 6
-5 3 3 -5 43 -16 89 -25 97 -44 137 -35 72 4 -24 5 -43 2 -43 -2 0 -23 29 -46
65 -41 63 -51 74 -51 57z"/>
<path d="M2830 7408 c0 -7 106 -166 123 -183 5 -5 -5 18 -23 52 -30 57 -99
148 -100 131z"/>
<path d="M2770 7392 c0 -19 106 -158 127 -166 8 -3 -3 15 -25 41 -21 27 -52
67 -67 91 -27 42 -35 49 -35 34z"/>
<path d="M2693 7364 c19 -37 130 -142 178 -167 l34 -19 -30 27 c-16 15 -68 63
-114 108 -60 59 -79 73 -68 51z"/>
<path d="M2659 7335 c42 -57 113 -120 164 -146 31 -16 57 -28 57 -25 0 2 -18
16 -41 30 -22 15 -75 57 -117 94 -43 36 -71 57 -63 47z"/>
<path d="M3077 7258 c31 -109 33 -113 26 -48 -5 46 -35 130 -47 130 -2 0 8
-37 21 -82z"/>
<path d="M2680 7230 c26 -21 142 -80 156 -80 5 0 -31 23 -80 50 -95 53 -116
62 -76 30z"/>
<path d="M3008 7083 c7 -3 16 -2 19 1 4 3 -2 6 -13 5 -11 0 -14 -3 -6 -6z"/>
<path d="M3048 7073 c7 -3 16 -2 19 1 4 3 -2 6 -13 5 -11 0 -14 -3 -6 -6z"/>
<path d="M3098 7063 c7 -3 16 -2 19 1 4 3 -2 6 -13 5 -11 0 -14 -3 -6 -6z"/>
<path d="M3050 7000 c8 -5 20 -10 25 -10 6 0 3 5 -5 10 -8 5 -19 10 -25 10 -5
0 -3 -5 5 -10z"/>
<path d="M3361 6974 c0 -11 3 -14 6 -6 3 7 2 16 -1 19 -3 4 -6 -2 -5 -13z"/>
<path d="M3238 6953 c7 -3 16 -2 19 1 4 3 -2 6 -13 5 -11 0 -14 -3 -6 -6z"/>
<path d="M3298 6943 c7 -3 16 -2 19 1 4 3 -2 6 -13 5 -11 0 -14 -3 -6 -6z"/>
<path d="M3452 6890 c0 -14 2 -19 5 -12 2 6 2 18 0 25 -3 6 -5 1 -5 -13z"/>
<path d="M3523 6815 c0 -27 2 -38 4 -22 2 15 2 37 0 50 -2 12 -4 0 -4 -28z"/>
<path d="M6026 5753 c-3 -16 -9 -89 -12 -163 -9 -175 6 -299 61 -516 53 -209
65 -291 65 -443 0 -151 -19 -303 -79 -636 -27 -148 -54 -315 -61 -370 -6 -55
-13 -115 -15 -134 -2 -18 -2 -32 0 -29 3 2 43 112 91 244 l86 239 8 845 c5
465 9 878 10 918 l0 72 -74 0 c-72 0 -74 -1 -80 -27z"/>
<path d="M5785 5235 c4 -22 23 -110 41 -195 19 -85 34 -156 34 -157 0 -2 14
-3 30 -3 28 0 30 2 24 28 -17 68 -118 348 -131 362 -3 3 -2 -13 2 -35z"/>
<path d="M3073 2602 c-51 -30 -91 -58 -88 -60 9 -9 169 19 177 31 7 11 12 88
6 86 -2 0 -45 -26 -95 -57z"/>
<path d="M2920 2478 c-49 -9 -45 -5 -164 -142 l-86 -99 0 -76 c0 -74 1 -75 18
-54 79 99 284 374 281 376 -2 2 -24 0 -49 -5z"/>
<path d="M7569 1926 c-12 -12 -279 -60 -510 -91 -387 -52 -486 -70 -671 -122
-92 -26 -166 -49 -164 -50 2 -2 164 6 359 17 299 18 361 19 383 8 17 -8 50
-51 89 -113 33 -55 85 -132 115 -172 30 -39 70 -101 88 -137 19 -36 35 -66 36
-66 1 0 -2 32 -7 71 -6 50 -6 74 2 78 6 4 45 13 87 20 75 12 76 13 95 54 35
77 21 143 -38 183 -39 26 -98 35 -184 25 l-67 -7 -60 45 c-34 25 -60 47 -58
49 2 1 29 -8 60 -22 l56 -25 0 29 c0 33 -10 30 190 60 137 21 208 35 215 42 3
2 11 32 19 66 14 62 14 62 -8 62 -13 0 -25 -2 -27 -4z m-183 -350 l28 -23 -88
-13 c-84 -13 -89 -13 -102 5 -30 41 -24 44 108 53 16 1 38 -8 54 -22z m51 -60
c15 -13 25 -27 21 -31 -3 -4 -33 1 -65 10 -87 24 -92 28 -53 35 59 12 68 11
97 -14z"/>
<path d="M6719 1600 c-10 -27 -15 -30 -54 -30 -67 0 -102 10 -113 34 -10 20
-11 20 -11 -5 -1 -27 -21 -39 -63 -39 -15 0 -16 4 -8 26 6 14 10 26 10 28 0 1
-13 1 -30 -2 -18 -2 -32 -12 -36 -24 -8 -25 -43 -38 -106 -38 -41 0 -51 3 -55
20 -6 24 -20 24 -232 10 -154 -11 -161 -13 -161 -63 0 -24 -4 -28 -22 -25 -16
2 -24 11 -26 28 -2 14 -7 29 -12 34 -5 4 -71 3 -149 -4 l-141 -13 0 -42 c0
-30 -5 -45 -16 -49 -28 -11 -33 -7 -40 39 -5 39 -9 44 -28 40 -11 -2 -88 -12
-171 -21 -85 -9 -153 -21 -157 -27 -4 -7 -8 -27 -8 -44 0 -26 -4 -33 -19 -33
-16 0 -21 9 -27 45 -5 39 -9 44 -28 40 -30 -7 -230 -23 -371 -31 l-120 -6 6
-91 c7 -97 25 -177 59 -264 11 -29 29 -94 40 -145 18 -85 71 -218 85 -218 4 0
4 8 0 18 -5 17 12 23 169 57 l175 39 6 65 c3 36 8 91 12 121 l6 55 8 -40 c4
-22 10 -73 14 -112 4 -43 12 -73 19 -73 6 0 86 17 178 37 l167 37 7 84 c7 94
15 91 34 -10 11 -59 15 -68 34 -68 23 0 278 39 281 43 1 1 8 43 15 92 15 98
19 93 34 -36 l7 -55 165 26 c179 28 177 26 188 95 17 100 25 115 56 115 59 0
58 1 34 -143 -18 -103 -20 -135 -11 -144 66 -66 741 -303 862 -303 44 0 127
54 118 77 -18 52 -183 247 -183 217 0 -6 9 -44 20 -86 22 -85 27 -128 17 -145
-8 -13 -147 22 -159 41 -13 20 -8 160 7 221 15 57 61 171 76 188 3 5 12 -31
19 -80 l13 -88 64 -70 c35 -38 82 -97 105 -130 22 -33 45 -60 51 -60 8 0 13
24 15 67 3 65 2 68 -66 195 -71 132 -210 363 -219 363 -2 0 -1 -14 2 -31 4
-18 7 -61 7 -96 0 -54 -7 -78 -47 -164 -45 -96 -48 -106 -53 -209 l-5 -108
-46 16 c-25 8 -48 16 -50 18 -1 1 7 31 19 65 22 64 39 209 40 334 0 43 10 105
25 160 31 112 39 187 27 245 -10 44 -10 43 -11 -30 -1 -47 -10 -109 -26 -165
-20 -70 -28 -129 -35 -264 -10 -177 -18 -226 -47 -294 -12 -29 -21 -37 -37
-35 -30 4 -74 177 -83 321 l-6 108 -23 -91 c-21 -84 -74 -210 -106 -253 -12
-16 -16 -16 -61 -1 -26 9 -47 18 -47 21 0 4 16 56 36 117 20 61 42 142 48 181
l12 69 98 17 c53 10 104 23 112 29 10 9 14 38 14 115 0 91 -2 104 -21 121 -16
15 -20 27 -16 56 5 35 3 38 -19 38 -19 0 -28 -8 -35 -30z m36 -84 c12 -9 16
-19 11 -31 -5 -14 -9 -16 -18 -7 -17 17 -72 15 -289 -13 -337 -44 -437 -62
-713 -130 -339 -82 -670 -140 -1036 -180 -73 -8 -23 11 65 24 264 41 708 130
945 190 290 73 360 85 745 131 294 34 268 33 290 16z m-16 -80 c-6 -6 -207
-52 -314 -71 -49 -9 -162 -36 -250 -60 -245 -67 -458 -116 -445 -102 3 2 57
19 120 37 63 17 187 53 275 80 88 26 205 57 260 69 143 31 368 60 354 47z
m-919 -22 c-169 -53 -1165 -233 -1184 -214 -6 6 -4 11 5 15 36 13 390 79 644
120 154 25 341 55 415 69 158 27 182 29 120 10z m-801 -78 c-2 -2 -83 -18
-179 -35 -96 -17 -185 -33 -197 -36 -18 -4 -23 -1 -23 15 0 11 3 20 8 21 182
22 398 42 391 35z m1537 -139 c-3 -30 -24 -111 -46 -181 -38 -119 -42 -127
-63 -120 -54 16 -88 38 -93 60 -4 14 2 78 11 144 l18 120 31 5 c17 3 51 10 76
14 77 15 73 17 66 -42z m193 -307 c25 -88 25 -90 8 -90 -13 0 -139 39 -145 44
-1 2 9 23 22 47 13 24 34 73 46 109 12 36 25 72 28 80 3 8 9 -14 12 -50 4 -36
17 -99 29 -140z"/>
<path d="M7010 1602 c0 -7 7 -56 16 -110 15 -93 18 -102 89 -212 40 -63 105
-171 144 -240 63 -109 71 -120 66 -85 -3 22 -10 76 -15 120 -9 68 -18 93 -66
178 -31 54 -79 128 -107 165 -28 36 -68 95 -89 131 -21 36 -38 60 -38 53z"/>
<path d="M4314 1238 c3 -123 10 -241 14 -263 8 -38 9 -33 30 75 21 114 35 211
47 343 l7 67 -53 0 -52 0 7 -222z"/>
<path d="M2744 1123 c-11 -127 -11 -461 -1 -487 7 -17 8 -17 34 2 l27 19 2
193 c1 171 -1 202 -21 282 -13 49 -25 92 -28 94 -3 3 -9 -43 -13 -103z"/>
<path d="M2820 848 c0 -106 7 -168 19 -168 3 0 16 8 29 18 l23 18 -30 113
c-17 63 -33 116 -36 119 -3 3 -5 -42 -5 -100z"/>
</g>
</svg>
